# Blender v2.83.2 OBJ File: ''
# www.blender.org
o Cube
v 0.771313 -0.750325 -1.000000
v 1.228687 -0.790538 1.000000
v -1.000000 -0.540862 -1.000000
v -1.000000 -0.540862 1.000000
v -1.000000 -1.000000 -1.000000
v -1.000000 -1.000000 1.000000
v 1.228687 -0.790538 -1.000000
v 1.000000 0.540862 1.000000
v -1.000000 0.540862 1.000000
v 1.000000 0.540862 -1.000000
v 0.771313 -0.750325 1.000000
v -1.000000 0.540862 -1.000000
v 0.064416 0.540862 -1.000000
v 0.064416 -0.540862 -1.000000
v -1.935584 -0.109895 1.000000
v -1.935584 -0.030792 1.000000
v 0.064416 0.540862 1.000000
v 0.064416 -0.540862 1.000000
v -1.935584 -0.030792 -1.000000
v -1.935584 -0.109895 -1.000000
v 1.000000 0.830626 -1.000000
v 0.830626 1.000000 -0.830626
v 1.000000 0.830626 1.000000
v 0.830626 1.000000 0.830626
v -0.830626 1.000000 -0.830626
v -1.000000 0.830626 -1.000000
v -0.830626 1.000000 0.830626
v -1.000000 0.830626 1.000000
v 1.278071 -0.228854 1.000000
v 1.278071 -0.228854 -1.000000
v 0.820697 -0.188642 1.000000
v 0.820697 -0.188642 -1.000000
vt 0.567608 0.250000
vt 0.603828 0.500000
vt 0.567608 0.500000
vt 0.567608 1.000000
vt 0.567608 0.750000
vt 0.567608 0.750000
vt 0.432392 1.000000
vt 0.432392 0.750000
vt 0.432392 1.000000
vt 0.375000 0.500000
vt 0.125000 0.750000
vt 0.125000 0.500000
vt 0.567608 0.500000
vt 0.567608 0.250000
vt 0.432392 0.250000
vt 0.432392 0.500000
vt 0.432392 0.500000
vt 0.375000 0.000000
vt 0.432392 0.000000
vt 0.375000 0.250000
vt 0.567608 0.000000
vt 0.603828 0.250000
vt 0.853828 0.521172
vt 0.646172 0.728828
vt 0.646172 0.521172
vt 0.432392 0.750000
vt 0.375000 1.000000
vt 0.375000 0.750000
vt 0.603828 1.000000
vt 0.375000 0.750000
vt 0.567608 1.000000
vt 0.567608 0.000000
vt 0.432392 0.250000
vt 0.432392 0.000000
vt 0.853828 0.728828
vt 0.625000 0.750000
vt 0.875000 0.750000
vt 0.875000 0.500000
vt 0.603828 0.750000
vt 0.432392 0.750000
vt 0.375000 0.500000
vt 0.432392 0.500000
vt 0.603828 0.000000
vt 0.625000 0.500000
vn 0.0000 0.0000 -1.0000
vn 0.0000 0.0000 1.0000
vn 0.0936 -0.9956 0.0000
vn -1.0000 0.0000 0.0000
vn 0.0000 1.0000 0.0000
vn 0.9962 -0.0876 0.0000
vn 1.0000 0.0000 0.0000
vn -0.4184 -0.9083 0.0000
vn 0.2841 0.9588 0.0000
vn -0.5214 0.8533 0.0000
vn 0.0000 -1.0000 0.0000
vn 0.0000 0.7071 0.7071
vn 0.7071 0.7071 0.0000
vn -0.7071 0.7071 0.0000
vn 0.0000 0.7071 -0.7071
vn 0.0876 0.9962 0.0000
vn -0.9962 0.0876 0.0000
s off
f 12/1/1 21/2/1 10/3/1
f 9/4/1 17/5/1 8/6/1
f 4/7/2 18/8/2 15/9/2
f 7/10/3 6/11/3 5/12/3
f 12/1/1 13/13/1 19/14/1
f 3/15/1 14/16/1 1/17/1
f 3/15/4 6/18/4 4/19/4
f 1/17/1 5/20/1 3/15/1
f 9/21/4 26/22/4 12/1/4
f 25/23/5 24/24/5 22/25/5
f 11/26/2 6/27/2 2/28/2
f 8/6/2 28/29/2 9/4/2
f 7/10/6 29/30/6 2/28/6
f 18/8/2 16/31/2 15/9/2
f 16/32/4 20/33/4 15/34/4
f 13/13/7 18/8/7 14/16/7
f 19/14/1 14/16/1 20/33/1
f 4/19/8 20/33/8 3/15/8
f 1/17/9 18/8/9 11/26/9
f 12/1/10 16/32/10 9/21/10
f 8/6/11 13/13/11 10/3/11
f 27/35/12 23/36/12 24/24/12
f 24/24/13 21/2/13 22/25/13
f 25/23/14 28/37/14 27/35/14
f 22/25/15 26/38/15 25/23/15
f 10/3/7 23/39/7 8/6/7
f 31/40/16 30/41/16 32/42/16
f 1/17/1 30/41/1 7/10/1
f 2/28/2 31/40/2 11/26/2
f 11/26/17 32/42/17 1/17/17
f 12/1/1 26/22/1 21/2/1
f 9/4/2 16/31/2 17/5/2
f 4/7/2 11/26/2 18/8/2
f 7/10/3 2/28/3 6/11/3
f 12/1/2 10/3/2 13/13/2
f 3/15/1 20/33/1 14/16/1
f 3/15/4 5/20/4 6/18/4
f 1/17/1 7/10/1 5/20/1
f 9/21/4 28/43/4 26/22/4
f 25/23/5 27/35/5 24/24/5
f 11/26/2 4/7/2 6/27/2
f 8/6/2 23/39/2 28/29/2
f 7/10/6 30/41/6 29/30/6
f 18/8/2 17/5/2 16/31/2
f 16/32/4 19/14/4 20/33/4
f 13/13/7 17/5/7 18/8/7
f 19/14/1 13/13/1 14/16/1
f 4/19/8 15/34/8 20/33/8
f 1/17/9 14/16/9 18/8/9
f 12/1/10 19/14/10 16/32/10
f 8/6/11 17/5/11 13/13/11
f 27/35/12 28/37/12 23/36/12
f 24/24/13 23/39/13 21/2/13
f 25/23/14 26/38/14 28/37/14
f 22/25/15 21/44/15 26/38/15
f 10/3/7 21/2/7 23/39/7
f 31/40/16 29/30/16 30/41/16
f 1/17/1 32/42/1 30/41/1
f 2/28/2 29/30/2 31/40/2
f 11/26/17 31/40/17 32/42/17
